<?xml version="1.0" ?><svg height="100" id="svg2" style="enable-background:new" version="1.1" viewBox="0 0 100 100" width="100" xmlns="http://www.w3.org/2000/svg" xmlns:cc="http://creativecommons.org/ns#" xmlns:dc="http://purl.org/dc/elements/1.1/" xmlns:inkscape="http://www.inkscape.org/namespaces/inkscape" xmlns:rdf="http://www.w3.org/1999/02/22-rdf-syntax-ns#" xmlns:sodipodi="http://sodipodi.sourceforge.net/DTD/sodipodi-0.dtd" xmlns:svg="http://www.w3.org/2000/svg" xmlns:xlink="http://www.w3.org/1999/xlink"><defs id="defs4"><linearGradient id="linearGradient5982"><stop id="stop5984" offset="0" style="stop-color:#ffaf3e;stop-opacity:1"/><stop id="stop5986" offset="1" style="stop-color:#e1ff73;stop-opacity:1"/></linearGradient><clipPath clipPathUnits="userSpaceOnUse" id="clipPath4383"><path d="m 137.06914,104.55026 c -4.67344,8.09465 -9.07198,8.09465 -13.74543,0 -4.67345,-8.094646 -2.47418,-11.903892 6.87272,-11.903892 9.34689,0 11.54616,3.809247 6.87271,11.903892 z" id="path4385" style="opacity:1;fill:#e8273c;fill-opacity:1;fill-rule:nonzero;stroke:none;stroke-width:2;stroke-linecap:round;stroke-linejoin:round;stroke-miterlimit:4;stroke-dasharray:none;stroke-opacity:1" transform="matrix(1.0275292,0,0,1.168297,-3.8978949,-18.617223)"/></clipPath><clipPath clipPathUnits="userSpaceOnUse" id="clipPath4248"><g id="g4250"><ellipse cx="150.06837" cy="-16.3678" id="ellipse4252" rx="17.036831" ry="21.868845" style="opacity:1;fill:#c4eb52;fill-opacity:1;fill-rule:nonzero;stroke:none;stroke-width:1;stroke-linecap:round;stroke-linejoin:round;stroke-miterlimit:4;stroke-dasharray:none;stroke-dashoffset:0;stroke-opacity:1" transform="matrix(0.91910487,0.39401298,-0.35730784,0.93398667,0,0)"/><ellipse cx="-105.62783" cy="91.50058" id="ellipse4254" rx="17.036831" ry="21.868845" style="opacity:1;fill:#c4eb52;fill-opacity:1;fill-rule:nonzero;stroke:none;stroke-width:1;stroke-linecap:round;stroke-linejoin:round;stroke-miterlimit:4;stroke-dasharray:none;stroke-dashoffset:0;stroke-opacity:1" transform="matrix(-0.91910487,0.39401298,0.35730784,0.93398667,0,0)"/></g></clipPath><filter id="filter4384" style="color-interpolation-filters:sRGB"><feBlend id="feBlend4386" in2="BackgroundImage" mode="lighten"/></filter><clipPath clipPathUnits="userSpaceOnUse" id="clipPath4447"><path d="m 152.09469,34.277344 c -1.92767,-0.629222 -4.09292,-0.07372 -6.19336,-0.07227 -2.10224,0.0015 -4.27103,-0.551121 -6.20117,0.08008 -4.22429,1.381437 -6.23385,6.319236 -6.23633,10.763672 -0.004,6.869041 5.56846,12.4375 12.4375,12.4375 6.86904,0 12.4375,-5.568458 12.4375,-12.4375 -0.005,-4.448839 -2.0149,-9.390993 -6.24414,-10.771484 z" id="path4449" style="display:inline;opacity:1;fill:#bb0a0a;fill-opacity:1;fill-rule:nonzero;stroke:none;stroke-width:8;stroke-linecap:round;stroke-linejoin:round;stroke-miterlimit:4;stroke-dasharray:none;stroke-dashoffset:0;stroke-opacity:1;filter:url(#filter4384)"/></clipPath><clipPath clipPathUnits="userSpaceOnUse" id="clipPath4352"><path d="m 243.24414,26.527344 a 16.528621,18.738329 0 0 0 -16.52734,18.738281 16.528621,18.738329 0 0 0 0.42382,4.109375 24.57196,24.57196 0 0 0 -8.46874,18.517578 24.57196,24.57196 0 0 0 24.57226,24.572266 24.57196,24.57196 0 0 0 24.57227,-24.572266 24.57196,24.57196 0 0 0 -8.45703,-18.527344 16.528621,18.738329 0 0 0 0.41406,-4.099609 16.528621,18.738329 0 0 0 -16.5293,-18.738281 z" id="path4354" style="opacity:1;fill:#eef93d;fill-opacity:1;fill-rule:nonzero;stroke:none;stroke-width:7;stroke-linecap:round;stroke-linejoin:round;stroke-miterlimit:4;stroke-dasharray:none;stroke-dashoffset:0;stroke-opacity:1"/></clipPath><clipPath clipPathUnits="userSpaceOnUse" id="clipPath5836"><rect height="50" id="rect5838" ry="20.731707" style="opacity:1;fill:#ffd048;fill-opacity:1;fill-rule:nonzero;stroke:none;stroke-width:0.1;stroke-linecap:round;stroke-linejoin:round;stroke-miterlimit:4;stroke-dasharray:none;stroke-dashoffset:0;stroke-opacity:1" width="41.463413" x="96.166519" y="765.12787"/></clipPath><linearGradient gradientTransform="matrix(1.3967716,0,0,1.4038431,-129.23623,-130.5687)" gradientUnits="userSpaceOnUse" id="linearGradient5979" x1="138.55331" x2="118.83543" xlink:href="#linearGradient5982" y1="832.34613" y2="793.28577"/></defs><g id="layer1" transform="translate(0,-952.36218)"><path d="m 48.162313,966.83728 c -11.572672,0.0474 -23.107952,6.50592 -29.738441,18.38231 -6.906183,12.37023 -6.626899,26.60021 -0.250483,37.11721 5.629758,10.4601 17.108944,17.5005 29.998617,17.5005 9.677043,0 18.959834,-2.6547 26.032945,-8.3325 7.073112,-5.6779 11.741304,-14.4576 12.096531,-25.6746 0.291325,-9.19935 -3.379908,-18.09921 -8.935511,-24.99963 -9.033327,-9.20872 -18.153952,-13.97783 -29.203658,-13.99329 z" id="path5925" style="opacity:1;fill:#285700;fill-opacity:1;fill-rule:nonzero;stroke:none;stroke-width:0.1;stroke-linecap:round;stroke-linejoin:round;stroke-miterlimit:4;stroke-dasharray:none;stroke-dashoffset:0;stroke-opacity:1"/><path d="m 82.648394,1005.4374 c -0.656204,20.7207 -16.641598,30.7279 -34.761134,30.7279 -16.926189,0 -30.243931,-12.6668 -30.243931,-29.5414 0,-16.87454 17.529231,-34.54788 34.609178,-35.69583 14.712013,-0.98881 30.958017,16.75843 30.395887,34.50933 z" id="path5927" style="opacity:1;fill:#8e5a0e;fill-opacity:1;fill-rule:nonzero;stroke:none;stroke-width:0.1;stroke-linecap:round;stroke-linejoin:round;stroke-miterlimit:4;stroke-dasharray:none;stroke-dashoffset:0;stroke-opacity:1"/><path d="m 61.674751,973.67572 c -13.503345,-8.0623 -31.458118,-2.65469 -40.31066,13.20179 -8.844791,15.84249 -4.709369,34.74689 8.806784,42.81689 13.505119,8.0634 30.377617,1.8466 39.178298,-13.917 8.792914,-15.7498 5.840013,-34.03278 -7.674422,-42.10168 z" id="path5929" style="display:inline;opacity:1;fill:#eceba4;fill-opacity:1;fill-rule:nonzero;stroke:none;stroke-width:0.69999999;stroke-linecap:round;stroke-linejoin:round;stroke-miterlimit:4;stroke-dasharray:none;stroke-dashoffset:0;stroke-opacity:1"/><path d="m 68.15686,1014.9616 c -8.5375,15.2921 -24.613014,21.2145 -37.68938,13.4071 -13.076353,-7.8073 -17.045014,-25.952 -8.507513,-41.24416 8.537501,-15.29217 25.769794,-20.48784 38.84616,-12.68047 13.076352,7.80736 15.888234,25.22525 7.350733,40.51753 z" id="path5931" style="display:inline;opacity:1;fill:#87d543;fill-opacity:1;fill-rule:nonzero;stroke:none;stroke-width:0.69999999;stroke-linecap:round;stroke-linejoin:round;stroke-miterlimit:4;stroke-dasharray:none;stroke-dashoffset:0;stroke-opacity:1"/><path d="m 47.722735,970.84611 c -9.912972,0.0245 -19.894358,5.76517 -25.763899,16.27856 -8.537501,15.29213 -4.567499,33.43603 8.508853,41.24353 13.076366,7.8074 29.150777,1.8842 37.688278,-13.4078 8.5375,-15.29233 5.726931,-32.70958 -7.349421,-40.51694 -4.086353,-2.4398 -8.577924,-3.60849 -13.083811,-3.59735 z m 0.611087,2.69802 c 0.60599,0.0145 1.209311,0.0528 1.811431,0.11511 3.211136,0.33284 6.359334,1.34582 9.294538,3.09833 11.71869,6.99676 14.374218,22.5768 6.383679,36.88933 -7.980371,14.2943 -22.251438,19.4205 -33.989012,12.4125 -11.715491,-6.9947 -16.206042,-23.801 -8.283861,-37.99092 5.563062,-9.96446 15.693357,-14.74232 24.783225,-14.5244 z" id="path5949" style="display:inline;opacity:1;fill:#ffffff;fill-opacity:0.30718958;fill-rule:nonzero;stroke:none;stroke-width:0.69999999;stroke-linecap:round;stroke-linejoin:round;stroke-miterlimit:4;stroke-dasharray:none;stroke-dashoffset:0;stroke-opacity:1"/><path d="m 45.33385,983.46657 c 2.476909,0.0638 1.507857,-6.7448 3.950671,-6.32825 2.372039,0.40449 -0.628142,6.17279 1.60496,7.07275 2.563733,1.03319 4.755086,-6.32316 6.91367,-4.59108 2.096597,1.68233 -3.835213,5.5017 -1.975328,7.445 1.984771,2.0738 6.597413,-5.14862 8.148235,-2.72984 1.672019,2.6078 -7.49178,3.96433 -6.296367,6.82459 1.147937,2.74667 8.375559,-2.68595 8.888998,0.24817 0.58244,3.32839 -9.411726,0.34314 -9.382827,3.7225 0.02109,2.47358 7.147825,0.14324 6.913656,2.60569 -0.210479,2.21344 -5.904712,-1.01203 -6.543288,1.11675 -0.798339,2.66155 6.820506,3.74365 5.802539,6.32835 -0.711879,1.8076 -4.90725,-1.7231 -5.802539,0 -1.299919,2.502 6.553806,4.7323 4.814867,6.9487 -1.888072,2.4065 -8.642091,-3.8467 -8.518616,-3.3503 0.123474,0.4964 3.031651,2.8789 2.098789,4.0948 -0.926744,1.2079 -3.545048,-2.2212 -4.444499,-0.9927 -1.911929,2.6116 7.151205,6.2019 4.814881,8.4377 -2.265298,2.1678 -5.328782,-5.5645 -8.024802,-3.9706 -1.705919,1.0085 2.230434,5.2763 0.370382,5.9559 -1.825567,0.6671 -2.185515,-5.668 -4.074132,-5.2115 -2.960052,0.7157 1.560194,8.9273 -1.481485,9.0582 -2.842012,0.1221 0.717703,-7.9128 -2.098803,-8.3136 -3.305474,-0.4706 -1.809699,9.4441 -5.061789,8.6857 -3.256042,-0.759 2.218898,-8.4894 -0.74075,-10.0506 -2.449825,-1.2923 -5.056802,5.044 -7.03713,3.102 -1.885391,-1.8489 5.164758,-4.6679 3.82721,-6.9487 -0.940349,-1.6034 -4.659966,1.6291 -5.555618,0 -0.82281,-1.4965 3.538889,-2.8463 2.716079,-4.3428 -1.015076,-1.8464 -5.639647,2.0034 -6.296381,0 -0.736588,-2.2471 5.899795,-1.8635 5.679091,-4.219 -0.231235,-2.468 -6.971887,-0.7662 -6.666748,-3.2261 0.306535,-2.47118 6.865146,0.9653 7.284038,-1.48905 0.36513,-2.13932 -5.755886,-1.18906 -5.555631,-3.35025 0.21974,-2.37152 4.764499,-0.29615 5.706482,-2.48167 1.011682,-2.34728 -3.925473,-5.39672 -2.002719,-7.07275 1.631499,-1.42217 5.628082,4.61724 5.293722,2.47284 -0.82971,-5.32129 -2.537989,-4.48875 -0.725762,-5.8231 1.440169,-1.06041 3.327417,3.34987 4.814867,2.35759 1.888617,-1.2599 -2.488139,-6.01219 -0.370382,-6.82459 1.969476,-0.75552 1.867246,5.2863 3.950671,4.96334 1.918494,-0.29739 0.162388,-5.32285 2.098789,-5.45967 2.021547,-0.14284 0.937136,5.28335 2.962999,5.33558 z" id="path5964" style="fill:#000000;fill-opacity:0.13333333;fill-rule:evenodd;stroke:none;stroke-width:1px;stroke-linecap:butt;stroke-linejoin:miter;stroke-opacity:1"/><path d="m 127.45508,795.99609 c -2.86126,-0.29508 -6.73566,1.20905 -9.2793,5.74219 -3.41103,6.07899 -1.70505,11.82934 1.97852,14.01758 1.57484,0.93554 3.78256,1.54386 5.84375,0.625 2.06119,-0.91886 3.64434,-2.84141 5.39257,-5.95703 1.8054,-3.21749 2.53768,-5.90545 2.26368,-8.27539 -0.27401,-2.36994 -1.72359,-4.21959 -3.41211,-5.22266 -0.88709,-0.52698 -1.86301,-0.83438 -2.78711,-0.92969 z" id="path5962" style="display:inline;opacity:1;fill:#c5db4a;fill-opacity:1;fill-rule:nonzero;stroke:none;stroke-width:0.69999999;stroke-linecap:round;stroke-linejoin:round;stroke-miterlimit:4;stroke-dasharray:none;stroke-dashoffset:0;stroke-opacity:1" transform="matrix(1.3175929,-0.1614555,0.16064221,1.3242636,-251.66656,-47.61022)"/><path d="m 127.23242,798.15625 c -1.98266,-0.20447 -4.95525,0.71158 -7.16211,4.64453 -2.99444,5.33655 -1.27292,9.62279 1.19336,11.08789 2.57813,1.53154 4.94315,1.33464 8.23242,-4.52734 3.34084,-5.95388 2.11922,-9.09363 -0.36328,-10.56836 -0.64863,-0.38532 -1.24026,-0.56864 -1.90039,-0.63672 z" id="path5958" style="display:inline;opacity:1;fill:#dbf067;fill-opacity:1;fill-rule:nonzero;stroke:none;stroke-width:0.69999999;stroke-linecap:round;stroke-linejoin:round;stroke-miterlimit:4;stroke-dasharray:none;stroke-dashoffset:0;stroke-opacity:1" transform="matrix(1.3175929,-0.1614555,0.16064221,1.3242636,-251.66656,-47.61022)"/><path d="m 47.722735,970.84611 c -9.912972,0.0245 -19.894358,5.76517 -25.763899,16.27856 -2.733105,4.89549 -4.168218,10.08232 -4.449472,15.12973 8.629786,-14.90461 34.054842,-19.4698 54.877843,-11.24174 -1.431817,-6.86577 -5.312914,-12.82698 -11.580661,-16.5692 -4.086353,-2.4398 -8.577924,-3.60849 -13.083811,-3.59735 z" id="path5966" style="fill:#ffffff;fill-opacity:0.41830067;fill-rule:evenodd;stroke:none;stroke-width:1px;stroke-linecap:butt;stroke-linejoin:miter;stroke-opacity:1"/></g><g id="layer2" style="display:inline;opacity:0.4;" transform="translate(0,-952.36218)"><path d="m 48.162313,966.83728 c -11.572672,0.0474 -23.107952,6.50592 -29.738441,18.38231 -6.906183,12.37023 -6.626899,26.60021 -0.250483,37.11721 5.629758,10.4601 17.108944,17.5005 29.998617,17.5005 9.677043,0 18.959834,-2.6547 26.032945,-8.3325 7.073112,-5.6779 11.741304,-14.4576 12.096531,-25.6746 0.291325,-9.19935 -3.379908,-18.09921 -8.935511,-24.99963 -9.033327,-9.20872 -18.153952,-13.97783 -29.203658,-13.99329 z" id="path5971" style="opacity:1;fill:url(#linearGradient5979);fill-opacity:1;fill-rule:nonzero;stroke:none;stroke-width:0.1;stroke-linecap:round;stroke-linejoin:round;stroke-miterlimit:4;stroke-dasharray:none;stroke-dashoffset:0;stroke-opacity:1;enable-background:new"/></g></svg>